<svg width="14" height="13" viewBox="0 0 14 13" fill="none" xmlns="http://www.w3.org/2000/svg">
<path d="M8.25642 1.66277L8.25655 1.66265C8.53131 1.36998 8.85499 1.14051 9.20774 0.984899C9.56036 0.829349 9.9365 0.75 10.3151 0.75C10.6937 0.75 11.0699 0.829349 11.4225 0.984899C11.7752 1.14051 12.0989 1.36998 12.3737 1.66265L12.3739 1.6629C12.6489 1.95552 12.8693 2.30546 13.0205 2.69384C13.1717 3.08227 13.25 3.50008 13.25 3.92302C13.25 4.34595 13.1717 4.76376 13.0205 5.15219C12.8693 5.54057 12.6489 5.89051 12.3739 6.18313L12.3738 6.18326L11.6639 6.93908L7.18204 11.7105C7.0833 11.8157 6.91634 11.8157 6.8176 11.7105L2.33578 6.93908L1.62583 6.18326C1.06986 5.59136 0.75 4.77908 0.75 3.92302C0.75 3.06695 1.06986 2.25467 1.62583 1.66277C2.18031 1.07247 2.92194 0.750381 3.68453 0.750381C4.44712 0.750381 5.18874 1.07247 5.74322 1.66277C6.42413 2.38769 7.57551 2.38769 8.25642 1.66277Z" stroke="currentColor" stroke-width="1.5" stroke-linecap="round" stroke-linejoin="round"/>
</svg>
