<svg width="49" height="65" viewBox="0 0 49 65" fill="none" xmlns="http://www.w3.org/2000/svg">
<path fill-rule="evenodd" clip-rule="evenodd" d="M15.0116 0.288689C14.5747 0.724968 14.6656 2.54713 15.1709 3.4911C15.7707 4.61079 17.611 4.59435 17.9691 3.46643C18.2965 2.43589 17.9349 1.73127 17.0788 1.73127C16.7354 1.73127 16.4548 1.5365 16.4548 1.29845C16.4548 0.687313 19.9259 0.771279 21.1839 1.41315C22.8449 2.26017 22.728 2.88472 20.4954 5.09641C19.3448 6.23645 17.7626 8.43559 16.9788 9.98291C16.1955 11.5307 15.1008 13.3654 14.5465 14.06C13.5939 15.2542 13.3696 15.3208 10.4501 15.2758C8.28285 15.2425 7.36138 15.3858 7.36138 15.7563C7.36138 16.5847 9.63864 18.0588 11.9583 18.7319C13.9463 19.3088 14.0814 19.4408 14.2075 20.9262C14.3491 22.5904 14.876 22.9942 15.3372 21.7923C15.578 21.166 15.7451 21.2037 16.7008 22.1013C17.621 22.9657 17.9215 23.0427 18.6325 22.5991C19.8112 21.8633 19.9194 21.9191 19.9164 23.2639C19.9134 24.9359 19.1422 27.5202 18.4844 28.066C17.7543 28.6715 14.4673 27.5661 12.9907 26.2183C12.3953 25.6747 11.5673 25.1103 11.1503 24.964C10.7338 24.8177 10.3925 24.2884 10.3925 23.7876C10.3925 22.8181 9.4598 21.6408 8.69118 21.6408C8.09838 21.6408 8.10271 22.4528 8.70591 24.1823C9.06315 25.2064 9.05536 25.7097 8.67603 26.1668C8.28501 26.6373 8.2941 27.0112 8.71414 27.7808C9.01509 28.3317 9.21081 29.2986 9.14932 29.9297C9.07701 30.6672 9.38532 31.4008 10.0123 31.9847C10.7463 32.6681 10.9944 33.397 11.0148 34.9305L11.0421 36.9682L7.57789 37.652L4.11371 38.3354L4.25184 40.0827C4.36833 41.559 4.14965 42.1174 2.84149 43.6824C1.99017 44.7013 1.17176 46.0179 1.02366 46.6083C0.304414 49.4722 2.03997 54.7591 3.57243 54.3734C4.1332 54.2328 4.33022 54.4475 4.33022 55.1993C4.33022 55.758 4.52508 56.3354 4.76324 56.4826C5.00141 56.6297 5.19626 57.4092 5.19626 58.2147C5.19626 59.875 3.9392 61.0704 2.56999 60.7125C1.94947 60.5502 1.73209 60.7159 1.73209 61.3513C1.73209 61.8226 1.34237 62.7039 0.866044 63.3094C0.38972 63.9144 0 64.5252 0 64.6663C0 64.8069 8.37898 64.9225 18.6199 64.9225C34.8825 64.9225 37.2399 64.8402 37.2399 64.2733C37.2399 63.9162 37.5382 63.624 37.9033 63.624C38.2683 63.624 39.2911 63.3003 40.1767 62.9047C42.6644 61.7936 44.7606 61.041 45.3881 61.0336C45.7016 61.0302 46.627 60.5173 47.4449 59.8936C48.8029 58.8583 48.9315 58.5653 48.9315 56.5055C48.9315 54.5461 48.5937 53.6589 46.355 49.7354C43.8244 45.3007 42.4362 41.3967 42.4362 38.7154C42.4362 36.9915 40.3299 32.7586 38.283 30.3681C37.2702 29.1857 35.4957 27.9167 33.3401 26.8333C31.4907 25.9041 29.5169 24.5485 28.9536 23.8209C28.3907 23.0934 27.2046 21.6724 26.3178 20.6631C24.4112 18.493 24.3112 17.9325 25.7648 17.5676C26.9288 17.2759 27.1825 16.3921 26.3061 15.6814C26.0086 15.4399 24.642 15.0122 23.2697 14.7309C21.2506 14.3171 20.6573 13.993 20.1606 13.033C19.082 10.9485 19.7428 8.63815 22.3535 5.36346C23.6343 3.75685 24.6823 2.22121 24.6823 1.9507C24.6823 0.942242 21.6775 0 18.461 0C16.7224 0 15.1701 0.129845 15.0116 0.288689ZM13.2041 28.9939C13.3557 29.2389 13.1821 29.3116 12.7967 29.164C12.0467 28.8762 11.9094 28.5659 12.5321 28.5659C12.7564 28.5659 13.0586 28.7585 13.2041 28.9939ZM16.502 32.8352C20.3728 34.8906 20.6642 34.9084 21.5086 33.1377C22.3058 31.4666 23.126 31.1511 23.5482 32.353C23.8335 33.1667 25.0451 35.1845 26.9556 38.029C28.4127 40.1987 28.5071 42.8203 27.4224 51.0131C26.7395 56.1701 26.6027 56.6124 25.0269 58.7548C24.1076 60.0044 23.1896 61.0271 22.9861 61.0271C22.4063 61.0271 21.2181 58.989 21.2181 57.9939C21.2181 57.4992 21.975 56.0805 22.8999 54.8409C26.6317 49.8393 26.9067 47.7072 24.2735 44.1802C22.5843 41.9165 22.0114 40.4129 22.2023 38.741C22.2859 38.0074 21.9456 37.8282 19.919 37.5373C13.2176 36.5752 13.7571 36.834 13.192 34.3089C12.4697 31.0806 12.866 30.9044 16.502 32.8352ZM10.2843 59.3227C12.2857 59.8758 12.4706 60.3385 11.6409 62.7173C11.2005 63.9798 11.0364 64.0789 9.80059 63.8266C7.08814 63.2734 5.19626 62.6125 5.19626 62.2178C5.19626 61.4751 7.57226 58.448 8.01091 58.6319C8.24907 58.7323 9.2723 59.0431 10.2843 59.3227ZM20.2598 60.5619C21.3021 62.5511 21.1003 63.1691 19.4033 63.1847C19.0006 63.1882 18.5507 63.386 18.4034 63.624C18.2562 63.8621 17.3681 64.0568 16.4293 64.0568C15.0947 64.0568 14.7219 63.8919 14.718 63.2994C14.7154 62.8826 14.5976 61.8434 14.4564 60.9899C14.2023 59.456 14.2213 59.4326 16.085 58.9816C18.8113 58.3216 19.1543 58.4514 20.2598 60.5619Z" fill="#FFA500"/>
</svg>
